# xmcd CD database file
#
# Track frame offsets:
#	150
#	23190
#	45847
#	48078
#	65788
#	90203
#	103265
#	116155
#	134156
#	156765
#	178536
#	198779
#
# Disc length: 2959 seconds
#
# Revision: 1
# Processed by: cddbd v1.5.1PL0 Copyright (c) Steve Scherf et al.
# Submitted via: CDex 1.51
#
DISCID=9c0b8d0c
DTITLE=高中正義 - WALKIN'
DYEAR=1999
DGENRE=Fusion
TTITLE0=DO IT
TTITLE1=泣かないで
TTITLE2=Interlude
TTITLE3=マイムマイム
TTITLE4=BALLAD 2.15
TTITLE5=まいちゃん
TTITLE6=Remix “B”
TTITLE7=蝉時雨
TTITLE8=夏のギター
TTITLE9=GUITAR CANYON
TTITLE10=獅子座流星群
TTITLE11=SYMPHONY NO9 “GOIN' HOME”
EXTD=YEAR: 1999
EXTT0=
EXTT1=
EXTT2=
EXTT3=
EXTT4=
EXTT5=
EXTT6=
EXTT7=
EXTT8=
EXTT9=
EXTT10=
EXTT11=
PLAYORDER=
